<svg xmlns="http://www.w3.org/2000/svg" xmlns:xlink="http://www.w3.org/1999/xlink" width="170" zoomAndPan="magnify" viewBox="0 0 127.5 43.499998" height="58" preserveAspectRatio="xMidYMid meet" version="1.0"><defs><g/><clipPath id="63002f90e9"><path d="M 69 19 L 89 19 L 89 43.003906 L 69 43.003906 Z M 69 19 " clip-rule="nonzero"/></clipPath></defs><g fill="#000000" fill-opacity="1"><g transform="translate(3.488183, 11.001267)"><g><path d="M 5.609375 -7.625 L 5.609375 -6.453125 L 3.640625 -6.453125 L 3.640625 0 L 2.421875 0 L 2.421875 -6.453125 L 0.5 -6.453125 L 0.5 -7.625 Z M 5.609375 -7.625 "/></g></g></g><g fill="#000000" fill-opacity="1"><g transform="translate(9.92308, 11.001267)"><g><path d="M 6.109375 -7.625 L 6.109375 -6.453125 L 2.28125 -6.453125 L 2.28125 -4.421875 L 5.6875 -4.421875 L 5.6875 -3.25 L 2.28125 -3.25 L 2.28125 -1.171875 L 6.265625 -1.171875 L 6.265625 0 L 1.046875 0 L 1.046875 -7.625 Z M 6.109375 -7.625 "/></g></g></g><g fill="#000000" fill-opacity="1"><g transform="translate(17.143945, 11.001267)"><g><path d="M 2.28125 -7.625 L 2.28125 -1.171875 L 6.03125 -1.171875 L 6.03125 0 L 1.046875 0 L 1.046875 -7.625 Z M 2.28125 -7.625 "/></g></g></g><g fill="#000000" fill-opacity="1"><g transform="translate(24.071389, 11.001267)"><g><path d="M 2.25 -4.3125 L 2.421875 -4.5625 L 5.296875 -7.625 L 6.875 -7.625 L 3.71875 -4.296875 L 6.984375 0 L 5.4375 0 L 2.828125 -3.515625 L 2.28125 -3 L 2.28125 0 L 1.046875 0 L 1.046875 -7.625 L 2.28125 -7.625 L 2.28125 -4.703125 Z M 2.25 -4.3125 "/></g></g></g><g fill="#000000" fill-opacity="1"><g transform="translate(31.617127, 11.001267)"><g><path d="M 0.578125 -3.8125 C 0.578125 -4.507812 0.75 -5.15625 1.09375 -5.75 C 1.445312 -6.34375 1.921875 -6.816406 2.515625 -7.171875 C 3.117188 -7.535156 3.773438 -7.71875 4.484375 -7.71875 C 5.179688 -7.71875 5.828125 -7.535156 6.421875 -7.171875 C 7.015625 -6.816406 7.488281 -6.335938 7.84375 -5.734375 C 8.207031 -5.140625 8.390625 -4.5 8.390625 -3.8125 C 8.390625 -3.101562 8.210938 -2.453125 7.859375 -1.859375 C 7.503906 -1.265625 7.023438 -0.789062 6.421875 -0.4375 C 5.828125 -0.09375 5.179688 0.078125 4.484375 0.078125 C 3.773438 0.078125 3.117188 -0.09375 2.515625 -0.4375 C 1.921875 -0.78125 1.445312 -1.25 1.09375 -1.84375 C 0.75 -2.4375 0.578125 -3.09375 0.578125 -3.8125 Z M 1.828125 -3.8125 C 1.828125 -3.3125 1.945312 -2.851562 2.1875 -2.4375 C 2.425781 -2.03125 2.75 -1.703125 3.15625 -1.453125 C 3.570312 -1.210938 4.023438 -1.09375 4.515625 -1.09375 C 4.992188 -1.09375 5.429688 -1.210938 5.828125 -1.453125 C 6.222656 -1.691406 6.535156 -2.019531 6.765625 -2.4375 C 7.003906 -2.851562 7.125 -3.3125 7.125 -3.8125 C 7.125 -4.300781 7.003906 -4.753906 6.765625 -5.171875 C 6.535156 -5.597656 6.21875 -5.929688 5.8125 -6.171875 C 5.40625 -6.421875 4.960938 -6.546875 4.484375 -6.546875 C 3.992188 -6.546875 3.546875 -6.421875 3.140625 -6.171875 C 2.734375 -5.929688 2.410156 -5.597656 2.171875 -5.171875 C 1.941406 -4.753906 1.828125 -4.300781 1.828125 -3.8125 Z M 1.828125 -3.8125 "/></g></g></g><g fill="#000000" fill-opacity="1"><g transform="translate(40.902462, 11.001267)"><g><path d="M 8.75 -7.90625 L 8.75 0 L 7.53125 0 L 7.53125 -4.40625 L 4.859375 -0.625 L 4.84375 -0.625 L 2.234375 -4.234375 L 2.234375 0 L 1.046875 0 L 1.046875 -7.90625 L 1.0625 -7.90625 L 4.859375 -2.515625 L 8.734375 -7.90625 Z M 8.75 -7.90625 "/></g></g></g><g fill="#000000" fill-opacity="1"><g transform="translate(54.704939, 11.001267)"><g><path d="M 2.15625 -2.75 C 2.15625 -2.457031 2.226562 -2.179688 2.375 -1.921875 C 2.53125 -1.671875 2.738281 -1.46875 3 -1.3125 C 3.269531 -1.164062 3.5625 -1.09375 3.875 -1.09375 C 4.207031 -1.09375 4.503906 -1.164062 4.765625 -1.3125 C 5.035156 -1.46875 5.25 -1.671875 5.40625 -1.921875 C 5.5625 -2.171875 5.640625 -2.445312 5.640625 -2.75 L 5.640625 -7.625 L 6.84375 -7.625 L 6.84375 -2.71875 C 6.84375 -2.164062 6.710938 -1.675781 6.453125 -1.25 C 6.191406 -0.832031 5.832031 -0.503906 5.375 -0.265625 C 4.925781 -0.0351562 4.425781 0.078125 3.875 0.078125 C 3.332031 0.078125 2.832031 -0.0351562 2.375 -0.265625 C 1.925781 -0.503906 1.570312 -0.832031 1.3125 -1.25 C 1.0625 -1.675781 0.9375 -2.164062 0.9375 -2.71875 L 0.9375 -7.625 L 2.15625 -7.625 Z M 2.15625 -2.75 "/></g></g></g><g fill="#000000" fill-opacity="1"><g transform="translate(62.795611, 11.001267)"><g><path d="M 7.796875 -7.625 L 7.796875 0.265625 L 7.765625 0.265625 L 2.25 -5.0625 L 2.28125 0 L 1.046875 0 L 1.046875 -7.890625 L 1.109375 -7.890625 L 6.59375 -2.5 L 6.578125 -7.625 Z M 7.796875 -7.625 "/></g></g></g><g fill="#000000" fill-opacity="1"><g transform="translate(71.965684, 11.001267)"><g><path d="M 2.28125 -7.625 L 2.28125 0 L 1.046875 0 L 1.046875 -7.625 Z M 2.28125 -7.625 "/></g></g></g><g fill="#000000" fill-opacity="1"><g transform="translate(75.613024, 11.001267)"><g><path d="M 7.21875 -7.625 L 3.8125 0.359375 L 0.390625 -7.625 L 1.84375 -7.625 L 3.859375 -2.625 L 5.78125 -7.625 Z M 7.21875 -7.625 "/></g></g></g><g fill="#000000" fill-opacity="1"><g transform="translate(83.546507, 11.001267)"><g><path d="M 6.109375 -7.625 L 6.109375 -6.453125 L 2.28125 -6.453125 L 2.28125 -4.421875 L 5.6875 -4.421875 L 5.6875 -3.25 L 2.28125 -3.25 L 2.28125 -1.171875 L 6.265625 -1.171875 L 6.265625 0 L 1.046875 0 L 1.046875 -7.625 Z M 6.109375 -7.625 "/></g></g></g><g fill="#000000" fill-opacity="1"><g transform="translate(90.767374, 11.001267)"><g><path d="M 5.21875 0 L 3.5 -2.65625 L 2.28125 -2.65625 L 2.28125 0 L 1.046875 0 L 1.046875 -7.625 L 3.203125 -7.625 C 4.054688 -7.625 4.738281 -7.40625 5.25 -6.96875 C 5.757812 -6.539062 6.015625 -5.941406 6.015625 -5.171875 C 6.015625 -4.710938 5.914062 -4.28125 5.71875 -3.875 C 5.519531 -3.46875 5.207031 -3.160156 4.78125 -2.953125 L 6.640625 0 Z M 2.28125 -3.828125 L 3.359375 -3.828125 C 3.847656 -3.828125 4.203125 -3.960938 4.421875 -4.234375 C 4.648438 -4.503906 4.765625 -4.804688 4.765625 -5.140625 C 4.765625 -5.335938 4.722656 -5.535156 4.640625 -5.734375 C 4.554688 -5.929688 4.410156 -6.097656 4.203125 -6.234375 C 4.003906 -6.378906 3.738281 -6.453125 3.40625 -6.453125 L 2.28125 -6.453125 Z M 2.28125 -3.828125 "/></g></g></g><g fill="#000000" fill-opacity="1"><g transform="translate(98.114002, 11.001267)"><g><path d="M 5.046875 -6.078125 C 4.390625 -6.421875 3.804688 -6.59375 3.296875 -6.59375 C 2.921875 -6.59375 2.625 -6.507812 2.40625 -6.34375 C 2.1875 -6.175781 2.078125 -5.945312 2.078125 -5.65625 C 2.078125 -5.363281 2.210938 -5.117188 2.484375 -4.921875 C 2.765625 -4.734375 3.15625 -4.546875 3.65625 -4.359375 C 4.03125 -4.222656 4.347656 -4.070312 4.609375 -3.90625 C 4.878906 -3.738281 5.101562 -3.503906 5.28125 -3.203125 C 5.457031 -2.910156 5.546875 -2.539062 5.546875 -2.09375 C 5.546875 -1.6875 5.441406 -1.316406 5.234375 -0.984375 C 5.035156 -0.660156 4.742188 -0.398438 4.359375 -0.203125 C 3.972656 -0.015625 3.519531 0.078125 3 0.078125 C 2.539062 0.078125 2.085938 0.0078125 1.640625 -0.125 C 1.191406 -0.269531 0.789062 -0.46875 0.4375 -0.71875 L 0.984375 -1.671875 C 1.242188 -1.484375 1.550781 -1.320312 1.90625 -1.1875 C 2.257812 -1.0625 2.585938 -1 2.890625 -1 C 3.253906 -1 3.578125 -1.085938 3.859375 -1.265625 C 4.140625 -1.441406 4.28125 -1.71875 4.28125 -2.09375 C 4.28125 -2.382812 4.160156 -2.625 3.921875 -2.8125 C 3.691406 -3.007812 3.367188 -3.191406 2.953125 -3.359375 C 2.515625 -3.515625 2.148438 -3.671875 1.859375 -3.828125 C 1.578125 -3.984375 1.332031 -4.203125 1.125 -4.484375 C 0.914062 -4.773438 0.8125 -5.132812 0.8125 -5.5625 C 0.8125 -6.175781 1.023438 -6.671875 1.453125 -7.046875 C 1.878906 -7.429688 2.4375 -7.640625 3.125 -7.671875 C 3.625 -7.671875 4.0625 -7.613281 4.4375 -7.5 C 4.820312 -7.382812 5.179688 -7.222656 5.515625 -7.015625 Z M 5.046875 -6.078125 "/></g></g></g><g fill="#000000" fill-opacity="1"><g transform="translate(104.538423, 11.001267)"><g><path d="M 2.28125 -7.625 L 2.28125 0 L 1.046875 0 L 1.046875 -7.625 Z M 2.28125 -7.625 "/></g></g></g><g fill="#000000" fill-opacity="1"><g transform="translate(108.185757, 11.001267)"><g><path d="M 5.609375 -7.625 L 5.609375 -6.453125 L 3.640625 -6.453125 L 3.640625 0 L 2.421875 0 L 2.421875 -6.453125 L 0.5 -6.453125 L 0.5 -7.625 Z M 5.609375 -7.625 "/></g></g></g><g fill="#000000" fill-opacity="1"><g transform="translate(114.62065, 11.001267)"><g><path d="M 7.140625 -7.625 L 4.28125 -2.46875 L 4.28125 0 L 3.0625 0 L 3.0625 -2.46875 L 0.234375 -7.625 L 1.734375 -7.625 L 3.71875 -3.875 L 5.640625 -7.625 Z M 7.140625 -7.625 "/></g></g></g><g fill="#000000" fill-opacity="1"><g transform="translate(11.757194, 33.49745)"><g><path d="M 1.011719 -5.320312 C 1.011719 -4.269531 1.171875 -3.316406 1.738281 -2.648438 C 2.425781 -1.800781 3.136719 -1.539062 3.640625 -1.539062 C 4.390625 -1.539062 4.714844 -2.082031 4.046875 -2.265625 C 3.84375 -2.328125 3.679688 -2.347656 3.480469 -2.425781 C 3.054688 -2.570312 2.730469 -2.832031 2.46875 -3.175781 C 1.292969 -4.613281 1.941406 -7.242188 2.589844 -8.679688 C 3.136719 -9.953125 3.902344 -11.105469 4.8125 -12.136719 C 5.359375 -12.824219 7.203125 -14.566406 8.132812 -14.566406 C 8.65625 -14.566406 8.878906 -14.34375 9.144531 -13.816406 C 9.851562 -12.320312 8.960938 -8.558594 8.597656 -7.101562 C 8.210938 -5.582031 7.890625 -4.066406 7.523438 -2.570312 C 7.203125 -1.011719 6.878906 0.585938 6.695312 2.164062 L 6.230469 5.867188 C 6.191406 6.269531 6.070312 6.917969 6.371094 7.039062 C 6.414062 7.058594 6.453125 7.058594 6.492188 7.058594 C 6.796875 7.058594 6.777344 6.453125 6.816406 6.167969 C 6.859375 5.765625 6.917969 5.320312 6.980469 4.914062 C 7.605469 0.40625 8.3125 -2.347656 9.304688 -6.714844 C 9.730469 -8.558594 10.679688 -12.480469 9.667969 -14.300781 C 9.285156 -14.96875 8.777344 -15.210938 8.253906 -15.210938 C 7.242188 -15.210938 6.128906 -14.363281 5.480469 -13.714844 C 5.300781 -13.511719 5.136719 -13.410156 4.9375 -13.230469 C 3.015625 -11.308594 1.011719 -8.070312 1.011719 -5.320312 Z M 1.011719 -5.320312 "/></g></g></g><g fill="#000000" fill-opacity="1"><g transform="translate(21.321037, 33.49745)"><g><path d="M 0.566406 -1.050781 C 1.355469 -1.050781 2.164062 -3.640625 2.832031 -4.085938 C 3.015625 -3.703125 2.730469 -2.894531 3.136719 -1.679688 C 3.316406 -1.132812 3.660156 -0.585938 4.289062 -0.585938 C 4.410156 -0.585938 4.53125 -0.605469 4.671875 -0.648438 C 5.136719 -0.769531 5.785156 -1.578125 6.070312 -1.941406 C 6.191406 -2.105469 7.382812 -3.601562 6.59375 -3.601562 C 6.230469 -3.601562 5.160156 -1.195312 4.347656 -1.195312 C 3.601562 -1.195312 3.558594 -2.992188 3.558594 -3.5 L 3.4375 -4.632812 C 3.335938 -4.855469 3.195312 -4.957031 3.054688 -4.957031 C 2.570312 -4.957031 1.960938 -3.925781 1.839844 -3.703125 L 0.871094 -2.226562 C 0.871094 -3.804688 2.183594 -5.703125 1.292969 -5.703125 C 0.527344 -5.703125 -0.726562 -1.050781 0.566406 -1.050781 Z M 0.566406 -1.050781 "/></g></g></g><g fill="#000000" fill-opacity="1"><g transform="translate(27.386892, 33.49745)"><g><path d="M 0.566406 -1.050781 C 1.355469 -1.050781 2.164062 -3.640625 2.832031 -4.085938 C 3.015625 -3.703125 2.730469 -2.894531 3.136719 -1.679688 C 3.316406 -1.132812 3.660156 -0.585938 4.289062 -0.585938 C 4.410156 -0.585938 4.53125 -0.605469 4.671875 -0.648438 C 5.136719 -0.769531 5.785156 -1.578125 6.070312 -1.941406 C 6.191406 -2.105469 7.382812 -3.601562 6.59375 -3.601562 C 6.230469 -3.601562 5.160156 -1.195312 4.347656 -1.195312 C 3.601562 -1.195312 3.558594 -2.992188 3.558594 -3.5 L 3.4375 -4.632812 C 3.335938 -4.855469 3.195312 -4.957031 3.054688 -4.957031 C 2.570312 -4.957031 1.960938 -3.925781 1.839844 -3.703125 L 0.871094 -2.226562 C 0.871094 -3.804688 2.183594 -5.703125 1.292969 -5.703125 C 0.527344 -5.703125 -0.726562 -1.050781 0.566406 -1.050781 Z M 0.566406 -1.050781 "/></g></g></g><g fill="#000000" fill-opacity="1"><g transform="translate(33.452747, 33.49745)"><g><path d="M 1.011719 -0.464844 C 0.566406 -1.394531 1.496094 -3.214844 1.636719 -3.804688 C 2.347656 -3.335938 1.839844 -0.6875 1.011719 -0.464844 Z M 0 -1.152344 C 0 -0.101562 0.445312 0.425781 0.972656 0.425781 C 1.578125 0.425781 2.328125 -0.28125 2.628906 -1.679688 C 3.074219 -3.761719 2.105469 -4.105469 2.003906 -4.492188 C 2.105469 -4.652344 2.285156 -4.773438 2.347656 -4.914062 C 2.40625 -5.078125 2.285156 -5.402344 2.023438 -5.402344 C 1.03125 -5.402344 0 -2.0625 0 -1.152344 Z M 0 -1.152344 "/></g></g></g><g fill="#000000" fill-opacity="1"><g transform="translate(37.011388, 33.49745)"><g><path d="M 0.0195312 -2.203125 C 0.0195312 -1.515625 -0.0820312 -0.363281 0.445312 0.140625 C 0.628906 0.324219 0.808594 0.40625 0.992188 0.40625 C 2.082031 0.40625 3.277344 -2.425781 3.582031 -3.09375 C 3.78125 -3.539062 4.46875 -4.894531 3.945312 -4.894531 C 3.558594 -4.894531 3.378906 -4.125 3.175781 -3.742188 C 2.851562 -3.054688 1.820312 -0.566406 1.011719 -0.363281 C 0.75 -1.515625 0.929688 -2.304688 1.132812 -3.5 C 1.253906 -4.328125 1.558594 -5.058594 1.335938 -5.523438 C 1.195312 -5.542969 1.195312 -5.582031 1.011719 -5.582031 C 0.40625 -5.582031 0.0195312 -3.035156 0.0195312 -2.203125 Z M 0.0195312 -2.203125 "/></g></g></g><g fill="#000000" fill-opacity="1"><g transform="translate(41.358587, 33.49745)"><g><path d="M 0 -2.042969 C 0 -1.316406 0.0625 -0.972656 0.808594 -0.972656 C 1.394531 -0.972656 2.023438 -2.871094 2.40625 -3.136719 C 2.40625 -2.265625 3.054688 -1.214844 4.066406 -1.214844 C 4.410156 -1.214844 4.792969 -1.335938 5.199219 -1.617188 L 5.804688 -2.105469 C 6.835938 -3.09375 6.714844 -3.601562 6.414062 -3.601562 C 6.292969 -3.601562 6.148438 -3.539062 6.046875 -3.398438 C 5.765625 -3.09375 5.703125 -2.914062 5.320312 -2.570312 C 4.875 -2.125 4.449219 -1.882812 4.066406 -1.882812 C 3.640625 -1.882812 3.277344 -2.203125 3.113281 -2.933594 C 2.933594 -3.703125 3.277344 -4.613281 2.570312 -4.613281 C 2.304688 -4.613281 1.476562 -2.894531 1.070312 -2.265625 L 0.910156 -2.023438 C 0.808594 -1.902344 0.871094 -1.980469 0.808594 -1.921875 C 0.808594 -2.589844 1.09375 -3.359375 1.355469 -3.78125 C 1.941406 -4.792969 2.347656 -5.078125 2.648438 -5.078125 C 3.035156 -5.078125 3.277344 -4.613281 3.558594 -4.613281 C 4.085938 -4.613281 3.558594 -5.765625 2.609375 -5.765625 C 1.195312 -5.765625 0 -3.195312 0 -2.042969 Z M 0 -2.042969 "/></g></g></g><g fill="#000000" fill-opacity="1"><g transform="translate(47.22225, 33.49745)"><g><path d="M -5.683594 -9.023438 C -5.683594 -8.738281 -5.480469 -8.679688 -5.257812 -8.679688 C -5.136719 -8.679688 -5.015625 -8.699219 -4.914062 -8.71875 C -4.734375 -9.101562 -4.9375 -9.023438 -4.429688 -9.222656 C -4.1875 -9.324219 -4.003906 -9.46875 -3.761719 -9.566406 C -2.507812 -10.054688 -1.355469 -10.398438 -0.0195312 -10.722656 C 0.183594 -10.78125 0.648438 -10.863281 0.769531 -10.902344 L 0.585938 -9.023438 C 0.566406 -8.757812 0.546875 -8.3125 0.503906 -8.050781 C 0.40625 -7.464844 0.382812 -4.734375 0.382812 -3.964844 L 0.324219 -3.015625 C 0.324219 -1.539062 0.261719 0.871094 0.382812 2.328125 C 0.382812 2.8125 0.40625 3.539062 0.929688 3.539062 C 1.457031 3.539062 1.152344 2.144531 1.152344 1.679688 C 1.113281 0.789062 1.132812 -3.257812 1.195312 -3.863281 C 1.234375 -4.289062 1.195312 -5.199219 1.195312 -5.785156 C 1.195312 -6.070312 1.253906 -6.070312 1.253906 -6.332031 C 1.253906 -6.535156 1.234375 -6.777344 1.253906 -6.957031 L 1.660156 -11.105469 C 2.144531 -11.207031 5.21875 -11.792969 6.332031 -11.792969 C 6.472656 -11.792969 6.574219 -11.792969 6.65625 -11.773438 C 6.898438 -11.710938 6.835938 -11.792969 6.898438 -11.589844 C 7.667969 -11.589844 7.425781 -12.398438 6.472656 -12.398438 C 5.238281 -12.398438 4.046875 -12.199219 2.871094 -11.976562 C 2.570312 -11.933594 2.144531 -11.8125 1.820312 -11.8125 C 1.820312 -12.460938 2.226562 -11.933594 2.226562 -12.460938 C 2.226562 -12.582031 2.203125 -12.664062 2.203125 -12.722656 C 2.183594 -12.925781 2.226562 -12.765625 2.226562 -13.007812 C 2.226562 -13.332031 2.0625 -13.59375 1.839844 -13.59375 C 1.578125 -13.59375 1.253906 -13.230469 1.050781 -12.136719 C 0.910156 -11.449219 0.972656 -11.632812 0.121094 -11.410156 C -1.03125 -11.085938 -5.683594 -9.933594 -5.683594 -9.023438 Z M -5.683594 -9.023438 "/></g></g></g><g fill="#000000" fill-opacity="1"><g transform="translate(49.567716, 33.49745)"><g><path d="M 1.679688 0.0820312 C 2.628906 0.0820312 3.398438 -0.808594 3.882812 -1.316406 C 4.207031 -1.636719 5.421875 -2.992188 5.421875 -3.378906 C 5.421875 -3.558594 5.359375 -3.621094 5.28125 -3.621094 C 4.894531 -3.621094 3.824219 -2.183594 3.742188 -2.082031 C 3.4375 -1.699219 2.386719 -0.628906 1.738281 -0.628906 C 1.195312 -0.628906 0.972656 -1.820312 0.972656 -2.425781 C 0.972656 -4.492188 1.78125 -5.402344 0.847656 -5.402344 C 0.445312 -5.402344 0.242188 -4.492188 0.183594 -4.066406 C -0.0390625 -3.035156 0 -1.636719 0.484375 -0.726562 C 0.707031 -0.34375 1.132812 0.0820312 1.679688 0.0820312 Z M 1.03125 -7.949219 C 1.03125 -7.503906 1.292969 -7.300781 1.578125 -7.300781 C 1.980469 -7.300781 2.40625 -7.746094 2.023438 -8.496094 C 1.902344 -8.71875 1.761719 -8.800781 1.617188 -8.800781 C 1.316406 -8.800781 1.03125 -8.414062 1.03125 -7.949219 Z M 1.03125 -7.949219 "/></g></g></g><g fill="#000000" fill-opacity="1"><g transform="translate(54.177772, 33.49745)"><g><path d="M 1.011719 -0.464844 C 0.566406 -1.394531 1.496094 -3.214844 1.636719 -3.804688 C 2.347656 -3.335938 1.839844 -0.6875 1.011719 -0.464844 Z M 0 -1.152344 C 0 -0.101562 0.445312 0.425781 0.972656 0.425781 C 1.578125 0.425781 2.328125 -0.28125 2.628906 -1.679688 C 3.074219 -3.761719 2.105469 -4.105469 2.003906 -4.492188 C 2.105469 -4.652344 2.285156 -4.773438 2.347656 -4.914062 C 2.40625 -5.078125 2.285156 -5.402344 2.023438 -5.402344 C 1.03125 -5.402344 0 -2.0625 0 -1.152344 Z M 0 -1.152344 "/></g></g></g><g fill="#000000" fill-opacity="1"><g transform="translate(57.736413, 33.49745)"><g><path d="M 0.566406 -1.050781 C 1.355469 -1.050781 2.164062 -3.640625 2.832031 -4.085938 C 3.015625 -3.703125 2.730469 -2.894531 3.136719 -1.679688 C 3.316406 -1.132812 3.660156 -0.585938 4.289062 -0.585938 C 4.410156 -0.585938 4.53125 -0.605469 4.671875 -0.648438 C 5.136719 -0.769531 5.785156 -1.578125 6.070312 -1.941406 C 6.191406 -2.105469 7.382812 -3.601562 6.59375 -3.601562 C 6.230469 -3.601562 5.160156 -1.195312 4.347656 -1.195312 C 3.601562 -1.195312 3.558594 -2.992188 3.558594 -3.5 L 3.4375 -4.632812 C 3.335938 -4.855469 3.195312 -4.957031 3.054688 -4.957031 C 2.570312 -4.957031 1.960938 -3.925781 1.839844 -3.703125 L 0.871094 -2.226562 C 0.871094 -3.804688 2.183594 -5.703125 1.292969 -5.703125 C 0.527344 -5.703125 -0.726562 -1.050781 0.566406 -1.050781 Z M 0.566406 -1.050781 "/></g></g></g><g fill="#000000" fill-opacity="1"><g transform="translate(63.802268, 33.49745)"><g/></g></g><g clip-path="url(#63002f90e9)"><g fill="#000000" fill-opacity="1"><g transform="translate(69.039122, 33.49745)"><g><path d="M 9.082031 10.054688 C 8.210938 10.054688 8.597656 8.535156 8.777344 7.992188 C 9.222656 6.675781 10.621094 4.734375 11.671875 3.679688 C 11.933594 3.4375 12.097656 3.136719 12.378906 2.914062 C 12.300781 4.390625 10.742188 10.054688 9.082031 10.054688 Z M 0 -1.738281 C 0 0.363281 0.445312 2.144531 1.761719 3.480469 C 2.46875 4.207031 3.175781 4.207031 4.125 4.207031 C 5.96875 4.207031 8.578125 1.902344 9.609375 0.464844 C 10.945312 -1.316406 11.1875 -1.980469 12.300781 -3.742188 L 13.167969 -5.179688 C 13.433594 -4.027344 12.945312 -0.445312 12.765625 0.871094 C 12.5 2.46875 12.359375 1.699219 11.328125 2.972656 C 11.1875 3.214844 11.003906 3.359375 10.820312 3.558594 C 9.851562 4.8125 7.929688 7.019531 7.929688 8.777344 C 7.929688 9.710938 7.867188 10.699219 9.285156 10.699219 C 9.566406 10.699219 10.035156 10.398438 10.234375 10.234375 C 11.976562 8.800781 12.84375 4.894531 13.25 2.792969 C 13.351562 2.449219 13.351562 1.941406 13.613281 1.699219 L 16.648438 -1.171875 C 16.929688 -1.4375 17.113281 -1.699219 17.375 -1.960938 C 17.558594 -2.164062 19.035156 -3.558594 18.246094 -3.558594 C 17.839844 -3.558594 17.316406 -2.851562 17.074219 -2.546875 L 14.261719 0.203125 C 14.121094 0.304688 14.078125 0.304688 13.9375 0.445312 C 13.753906 0.546875 13.753906 0.628906 13.632812 0.707031 C 13.652344 -0.101562 14.019531 -1.738281 14.019531 -3.558594 C 14.019531 -4.246094 14.121094 -6.109375 13.351562 -6.109375 C 12.683594 -6.109375 11.773438 -4.148438 11.328125 -3.378906 C 10.519531 -1.980469 10.035156 -1.011719 9.042969 0.242188 L 7.949219 1.4375 C 7.039062 2.328125 5.402344 3.519531 3.902344 3.519531 C 3.359375 3.519531 2.832031 3.359375 2.367188 2.953125 C 2.003906 2.691406 1.761719 2.226562 1.578125 1.839844 C 0.445312 -0.464844 1.152344 -4.53125 1.800781 -6.714844 C 2.367188 -8.597656 4.269531 -13.1875 6.734375 -13.1875 C 8.496094 -13.1875 9.222656 -10.277344 9.222656 -8.558594 C 9.222656 -6.816406 9.183594 -5.945312 8.820312 -4.269531 C 8.738281 -3.660156 8.636719 -3.4375 8.757812 -2.871094 C 8.921875 -2.832031 9.042969 -2.792969 9.125 -2.792969 C 9.367188 -2.792969 9.425781 -3.015625 9.609375 -3.804688 C 10.257812 -6.371094 10.558594 -9.933594 9.40625 -12.300781 C 8.71875 -13.652344 7.769531 -14.261719 6.714844 -14.261719 C 4.347656 -14.261719 2.691406 -11.550781 1.761719 -9.648438 C 0.707031 -7.324219 0 -4.328125 0 -1.738281 Z M 0 -1.738281 "/></g></g></g></g><g fill="#000000" fill-opacity="1"><g transform="translate(86.549236, 33.49745)"><g><path d="M 0 -2.042969 C 0 -1.316406 0.0625 -0.972656 0.808594 -0.972656 C 1.394531 -0.972656 2.023438 -2.871094 2.40625 -3.136719 C 2.40625 -2.265625 3.054688 -1.214844 4.066406 -1.214844 C 4.410156 -1.214844 4.792969 -1.335938 5.199219 -1.617188 L 5.804688 -2.105469 C 6.835938 -3.09375 6.714844 -3.601562 6.414062 -3.601562 C 6.292969 -3.601562 6.148438 -3.539062 6.046875 -3.398438 C 5.765625 -3.09375 5.703125 -2.914062 5.320312 -2.570312 C 4.875 -2.125 4.449219 -1.882812 4.066406 -1.882812 C 3.640625 -1.882812 3.277344 -2.203125 3.113281 -2.933594 C 2.933594 -3.703125 3.277344 -4.613281 2.570312 -4.613281 C 2.304688 -4.613281 1.476562 -2.894531 1.070312 -2.265625 L 0.910156 -2.023438 C 0.808594 -1.902344 0.871094 -1.980469 0.808594 -1.921875 C 0.808594 -2.589844 1.09375 -3.359375 1.355469 -3.78125 C 1.941406 -4.792969 2.347656 -5.078125 2.648438 -5.078125 C 3.035156 -5.078125 3.277344 -4.613281 3.558594 -4.613281 C 4.085938 -4.613281 3.558594 -5.765625 2.609375 -5.765625 C 1.195312 -5.765625 0 -3.195312 0 -2.042969 Z M 0 -2.042969 "/></g></g></g><g fill="#000000" fill-opacity="1"><g transform="translate(92.412899, 33.49745)"><g><path d="M 0.0390625 -1.558594 C 0.0390625 -0.242188 0.0820312 2.246094 1.171875 2.246094 C 1.679688 2.246094 2.0625 1.476562 2.285156 1.132812 C 2.730469 0.382812 3.277344 -1.03125 3.703125 -1.902344 C 3.804688 -2.105469 4.429688 -3.277344 4.429688 -3.398438 C 4.429688 -3.5 4.347656 -3.621094 4.246094 -3.621094 C 4.148438 -3.621094 4.027344 -3.539062 3.902344 -3.296875 C 3.257812 -2.144531 2.671875 -0.726562 2.0625 0.445312 C 1.839844 0.910156 1.558594 1.457031 1.113281 1.699219 C 0.203125 -0.0390625 1.335938 -6.332031 1.902344 -8.375 C 1.960938 -8.578125 2.488281 -9.75 1.820312 -9.75 C 1.292969 -9.75 1.113281 -8.738281 0.929688 -8.152344 C 0.425781 -6.292969 0.0390625 -3.558594 0.0390625 -1.558594 Z M 0.0390625 -1.558594 "/></g></g></g><g fill="#000000" fill-opacity="1"><g transform="translate(95.97154, 33.49745)"><g><path d="M 0.0390625 -1.558594 C 0.0390625 -0.242188 0.0820312 2.246094 1.171875 2.246094 C 1.679688 2.246094 2.0625 1.476562 2.285156 1.132812 C 2.730469 0.382812 3.277344 -1.03125 3.703125 -1.902344 C 3.804688 -2.105469 4.429688 -3.277344 4.429688 -3.398438 C 4.429688 -3.5 4.347656 -3.621094 4.246094 -3.621094 C 4.148438 -3.621094 4.027344 -3.539062 3.902344 -3.296875 C 3.257812 -2.144531 2.671875 -0.726562 2.0625 0.445312 C 1.839844 0.910156 1.558594 1.457031 1.113281 1.699219 C 0.203125 -0.0390625 1.335938 -6.332031 1.902344 -8.375 C 1.960938 -8.578125 2.488281 -9.75 1.820312 -9.75 C 1.292969 -9.75 1.113281 -8.738281 0.929688 -8.152344 C 0.425781 -6.292969 0.0390625 -3.558594 0.0390625 -1.558594 Z M 0.0390625 -1.558594 "/></g></g></g><g fill="#000000" fill-opacity="1"><g transform="translate(99.530181, 33.49745)"><g><path d="M 0.929688 -3.660156 C 1.070312 -4.167969 1.738281 -4.957031 2.285156 -5.058594 C 2.226562 -4.410156 1.4375 -3.925781 0.929688 -3.660156 Z M 0.0195312 -3.175781 C 0.0195312 -2.609375 0 -2.105469 0.484375 -1.617188 C 0.828125 -1.273438 1.234375 -1.132812 1.660156 -1.132812 C 2.894531 -1.132812 4.289062 -2.367188 5.035156 -3.113281 C 5.21875 -3.335938 5.21875 -3.359375 5.160156 -3.660156 C 4.550781 -3.660156 4.875 -3.582031 4.046875 -2.933594 C 3.902344 -2.832031 3.84375 -2.75 3.679688 -2.628906 C 3.277344 -2.328125 2.425781 -1.738281 1.71875 -1.738281 C 1.476562 -1.738281 1.234375 -1.820312 1.050781 -2.003906 C 0.707031 -2.347656 0.75 -2.671875 0.75 -3.09375 C 1.375 -3.136719 2.105469 -3.722656 2.425781 -4.085938 C 3.054688 -4.875 3.054688 -5.683594 2.164062 -5.683594 C 1.195312 -5.683594 0.0195312 -4.1875 0.0195312 -3.175781 Z M 0.0195312 -3.175781 "/></g></g></g><g fill="#000000" fill-opacity="1"><g transform="translate(103.917823, 33.49745)"><g><path d="M 0.28125 -0.0820312 C 0.910156 -0.0820312 0.667969 -0.769531 0.789062 -1.292969 C 0.871094 -1.78125 1.050781 -2.183594 1.253906 -2.527344 C 1.578125 -3.054688 1.679688 -3.054688 2.449219 -3.054688 C 2.671875 -3.054688 2.972656 -3.035156 3.238281 -3.035156 C 3.640625 -3.035156 3.964844 -3.074219 3.964844 -3.359375 C 3.964844 -3.621094 3.335938 -3.660156 2.75 -3.660156 C 2.40625 -3.660156 2.0625 -3.640625 1.882812 -3.640625 C 1.253906 -3.640625 1.132812 -3.257812 0.828125 -3.054688 C 0.828125 -3.316406 0.871094 -3.296875 0.871094 -3.582031 C 0.871094 -3.78125 0.871094 -4.027344 0.890625 -4.226562 C 0.949219 -4.792969 1.050781 -5.179688 0.503906 -5.179688 C 0.0625 -5.179688 0.0195312 -3.074219 0.0195312 -2.710938 C 0.0390625 -2.203125 0.0195312 -1.699219 0.0390625 -1.214844 C 0.0390625 -1.070312 -0.121094 -0.0820312 0.28125 -0.0820312 Z M 0.28125 -0.0820312 "/></g></g></g><g fill="#000000" fill-opacity="1"><g transform="translate(107.213608, 33.49745)"><g><path d="M 0.585938 8.113281 C 0.261719 8.113281 -0.0625 7.992188 -0.222656 7.789062 C -1.03125 6.917969 -0.222656 5.28125 0.261719 4.59375 C 0.769531 3.824219 1.253906 3.195312 1.902344 2.546875 C 2.0625 2.40625 2.144531 2.246094 2.265625 2.144531 L 4.246094 0.382812 C 4.410156 0.261719 4.53125 0.183594 4.691406 0.0820312 C 4.59375 1.335938 3.660156 4.914062 3.054688 6.027344 C 2.570312 6.898438 1.738281 8.113281 0.585938 8.113281 Z M 1.050781 -1.78125 C 1.050781 -3.722656 2.246094 -5.078125 1.355469 -5.078125 C 0.6875 -5.078125 0.203125 -3.054688 0.203125 -2.183594 C 0.203125 -1.476562 0.527344 -1.03125 0.972656 -1.03125 C 1.195312 -1.03125 1.4375 -1.152344 1.679688 -1.375 C 2.226562 -1.882812 2.851562 -2.914062 3.257812 -3.558594 C 3.582031 -4.027344 5.097656 -6.675781 5.28125 -6.796875 C 5.28125 -4.46875 5.097656 -3.09375 4.855469 -1.03125 C 4.835938 -0.667969 4.652344 -0.667969 4.289062 -0.34375 C 4.125 -0.222656 4.046875 -0.183594 3.902344 -0.0625 C 2.144531 1.195312 -1.132812 4.550781 -1.132812 6.777344 C -1.132812 7.992188 -0.363281 8.699219 0.628906 8.699219 C 1.960938 8.699219 3.113281 7.484375 3.703125 6.371094 C 4.691406 4.753906 5.359375 1.679688 5.644531 -0.324219 C 5.683594 -0.605469 5.644531 -0.648438 5.847656 -0.789062 C 6.636719 -1.335938 7.464844 -1.859375 8.292969 -2.328125 C 8.535156 -2.46875 9.832031 -3.136719 9.832031 -3.4375 C 9.832031 -3.601562 9.75 -3.660156 9.648438 -3.660156 C 9.34375 -3.660156 8.800781 -3.238281 8.679688 -3.15625 L 5.785156 -1.476562 C 5.785156 -2.042969 5.96875 -3.359375 5.96875 -4.371094 L 5.96875 -5.925781 C 5.96875 -6.332031 5.988281 -7.828125 5.5625 -7.828125 C 5.136719 -7.828125 5.136719 -7.6875 4.8125 -7.160156 C 4.105469 -5.96875 2.082031 -2.304688 1.050781 -1.78125 Z M 1.050781 -1.78125 "/></g></g></g><path stroke-linecap="round" transform="matrix(0.739135, 0, 0, 0.744385, 4.794708, 32.037272)" fill="none" stroke-linejoin="miter" d="M 0.499711 0.00240577 L 10.588568 0.00240577 " stroke="#000000" stroke-width="1" stroke-opacity="1" stroke-miterlimit="4"/><path stroke-linecap="round" transform="matrix(0.739135, 0, 0, 0.744385, 115.730612, 31.483752)" fill="none" stroke-linejoin="miter" d="M 0.501871 0.000836372 L 10.585443 0.000836372 " stroke="#000000" stroke-width="1" stroke-opacity="1" stroke-miterlimit="4"/></svg>