<svg xmlns="http://www.w3.org/2000/svg" xmlns:xlink="http://www.w3.org/1999/xlink" width="300" zoomAndPan="magnify" viewBox="0 0 224.87999 50.999998" height="68" preserveAspectRatio="xMidYMid meet" version="1.0"><defs><g/><clipPath id="8b21276a61"><path d="M 2 0.0117188 L 13 0.0117188 L 13 15 L 2 15 Z M 2 0.0117188 " clip-rule="nonzero"/></clipPath><clipPath id="1709218d3e"><path d="M 15 0.0117188 L 26 0.0117188 L 26 15 L 15 15 Z M 15 0.0117188 " clip-rule="nonzero"/></clipPath><clipPath id="fb1a62c0fd"><path d="M 29 0.0117188 L 39 0.0117188 L 39 15 L 29 15 Z M 29 0.0117188 " clip-rule="nonzero"/></clipPath><clipPath id="bea33ccb44"><path d="M 42 0.0117188 L 54 0.0117188 L 54 15 L 42 15 Z M 42 0.0117188 " clip-rule="nonzero"/></clipPath><clipPath id="ba4eb1396c"><path d="M 55 0.0117188 L 71 0.0117188 L 71 15 L 55 15 Z M 55 0.0117188 " clip-rule="nonzero"/></clipPath><clipPath id="7d866eebab"><path d="M 73 0.0117188 L 89 0.0117188 L 89 15 L 73 15 Z M 73 0.0117188 " clip-rule="nonzero"/></clipPath><clipPath id="0eb7547930"><path d="M 99 0.0117188 L 111 0.0117188 L 111 15 L 99 15 Z M 99 0.0117188 " clip-rule="nonzero"/></clipPath><clipPath id="ad485ca27b"><path d="M 114 0.0117188 L 128 0.0117188 L 128 16 L 114 16 Z M 114 0.0117188 " clip-rule="nonzero"/></clipPath><clipPath id="6dc8b44fbe"><path d="M 131 0.0117188 L 134 0.0117188 L 134 15 L 131 15 Z M 131 0.0117188 " clip-rule="nonzero"/></clipPath><clipPath id="92e7b65973"><path d="M 137 0.0117188 L 150 0.0117188 L 150 16 L 137 16 Z M 137 0.0117188 " clip-rule="nonzero"/></clipPath><clipPath id="9ca6dc2454"><path d="M 153 0.0117188 L 163 0.0117188 L 163 15 L 153 15 Z M 153 0.0117188 " clip-rule="nonzero"/></clipPath><clipPath id="6d984a7575"><path d="M 166 0.0117188 L 178 0.0117188 L 178 15 L 166 15 Z M 166 0.0117188 " clip-rule="nonzero"/></clipPath><clipPath id="d881cce8ed"><path d="M 179 0.0117188 L 189 0.0117188 L 189 15 L 179 15 Z M 179 0.0117188 " clip-rule="nonzero"/></clipPath><clipPath id="0ee77852e9"><path d="M 192 0.0117188 L 195 0.0117188 L 195 15 L 192 15 Z M 192 0.0117188 " clip-rule="nonzero"/></clipPath><clipPath id="cfc113ca1e"><path d="M 198 0.0117188 L 208 0.0117188 L 208 15 L 198 15 Z M 198 0.0117188 " clip-rule="nonzero"/></clipPath><clipPath id="674c967c87"><path d="M 209 0.0117188 L 223 0.0117188 L 223 15 L 209 15 Z M 209 0.0117188 " clip-rule="nonzero"/></clipPath><clipPath id="fac274aa2c"><path d="M 115 16 L 143 16 L 143 50.984375 L 115 50.984375 Z M 115 16 " clip-rule="nonzero"/></clipPath></defs><g clip-path="url(#8b21276a61)"><g fill="#000000" fill-opacity="1"><g transform="translate(1.937389, 14.809575)"><g><path d="M 10.46875 -14.234375 L 10.46875 -12.046875 L 6.78125 -12.046875 L 6.78125 0 L 4.515625 0 L 4.515625 -12.046875 L 0.9375 -12.046875 L 0.9375 -14.234375 Z M 10.46875 -14.234375 "/></g></g></g></g><g clip-path="url(#1709218d3e)"><g fill="#000000" fill-opacity="1"><g transform="translate(13.936416, 14.809575)"><g><path d="M 11.40625 -14.234375 L 11.40625 -12.046875 L 4.25 -12.046875 L 4.25 -8.25 L 10.625 -8.25 L 10.625 -6.0625 L 4.25 -6.0625 L 4.25 -2.1875 L 11.671875 -2.1875 L 11.671875 0 L 1.953125 0 L 1.953125 -14.234375 Z M 11.40625 -14.234375 "/></g></g></g></g><g clip-path="url(#fb1a62c0fd)"><g fill="#000000" fill-opacity="1"><g transform="translate(27.401023, 14.809575)"><g><path d="M 4.25 -14.234375 L 4.25 -2.1875 L 11.265625 -2.1875 L 11.265625 0 L 1.953125 0 L 1.953125 -14.234375 Z M 4.25 -14.234375 "/></g></g></g></g><g clip-path="url(#bea33ccb44)"><g fill="#000000" fill-opacity="1"><g transform="translate(40.318493, 14.809575)"><g><path d="M 4.203125 -8.0625 L 4.515625 -8.515625 L 9.875 -14.234375 L 12.8125 -14.234375 L 6.921875 -8.015625 L 13.03125 0 L 10.140625 0 L 5.265625 -6.578125 L 4.265625 -5.59375 L 4.265625 0 L 1.953125 0 L 1.953125 -14.234375 L 4.265625 -14.234375 L 4.265625 -8.78125 Z M 4.203125 -8.0625 "/></g></g></g></g><g clip-path="url(#ba4eb1396c)"><g fill="#000000" fill-opacity="1"><g transform="translate(54.388884, 14.809575)"><g><path d="M 1.078125 -7.09375 C 1.078125 -8.40625 1.398438 -9.617188 2.046875 -10.734375 C 2.703125 -11.847656 3.585938 -12.734375 4.703125 -13.390625 C 5.816406 -14.054688 7.035156 -14.390625 8.359375 -14.390625 C 9.660156 -14.390625 10.867188 -14.054688 11.984375 -13.390625 C 13.097656 -12.734375 13.988281 -11.84375 14.65625 -10.71875 C 15.320312 -9.59375 15.65625 -8.382812 15.65625 -7.09375 C 15.65625 -5.78125 15.320312 -4.566406 14.65625 -3.453125 C 14 -2.347656 13.109375 -1.46875 11.984375 -0.8125 C 10.867188 -0.164062 9.660156 0.15625 8.359375 0.15625 C 7.035156 0.15625 5.816406 -0.164062 4.703125 -0.8125 C 3.585938 -1.457031 2.703125 -2.332031 2.046875 -3.4375 C 1.398438 -4.550781 1.078125 -5.769531 1.078125 -7.09375 Z M 3.421875 -7.09375 C 3.421875 -6.175781 3.640625 -5.332031 4.078125 -4.5625 C 4.523438 -3.789062 5.128906 -3.175781 5.890625 -2.71875 C 6.660156 -2.257812 7.5 -2.03125 8.40625 -2.03125 C 9.3125 -2.03125 10.132812 -2.253906 10.875 -2.703125 C 11.613281 -3.160156 12.203125 -3.773438 12.640625 -4.546875 C 13.078125 -5.328125 13.296875 -6.175781 13.296875 -7.09375 C 13.296875 -8.019531 13.070312 -8.875 12.625 -9.65625 C 12.1875 -10.445312 11.585938 -11.066406 10.828125 -11.515625 C 10.078125 -11.972656 9.253906 -12.203125 8.359375 -12.203125 C 7.441406 -12.203125 6.609375 -11.972656 5.859375 -11.515625 C 5.109375 -11.066406 4.515625 -10.445312 4.078125 -9.65625 C 3.640625 -8.875 3.421875 -8.019531 3.421875 -7.09375 Z M 3.421875 -7.09375 "/></g></g></g></g><g clip-path="url(#7d866eebab)"><g fill="#000000" fill-opacity="1"><g transform="translate(71.703069, 14.809575)"><g><path d="M 16.328125 -14.75 L 16.328125 0 L 14.0625 0 L 14.0625 -8.234375 L 9.078125 -1.15625 L 9.03125 -1.15625 L 4.171875 -7.90625 L 4.171875 0 L 1.953125 0 L 1.953125 -14.75 L 1.96875 -14.75 L 9.078125 -4.6875 L 16.296875 -14.75 Z M 16.328125 -14.75 "/></g></g></g></g><g fill="#000000" fill-opacity="1"><g transform="translate(90.580536, 14.809575)"><g/></g></g><g clip-path="url(#0eb7547930)"><g fill="#000000" fill-opacity="1"><g transform="translate(97.440281, 14.809575)"><g><path d="M 4.015625 -5.125 C 4.015625 -4.570312 4.15625 -4.0625 4.4375 -3.59375 C 4.726562 -3.125 5.117188 -2.75 5.609375 -2.46875 C 6.109375 -2.1875 6.648438 -2.046875 7.234375 -2.046875 C 7.847656 -2.046875 8.40625 -2.179688 8.90625 -2.453125 C 9.40625 -2.734375 9.800781 -3.109375 10.09375 -3.578125 C 10.382812 -4.046875 10.53125 -4.5625 10.53125 -5.125 L 10.53125 -14.234375 L 12.78125 -14.234375 L 12.78125 -5.0625 C 12.78125 -4.050781 12.535156 -3.148438 12.046875 -2.359375 C 11.554688 -1.566406 10.882812 -0.945312 10.03125 -0.5 C 9.1875 -0.0625 8.253906 0.15625 7.234375 0.15625 C 6.222656 0.15625 5.296875 -0.0625 4.453125 -0.5 C 3.609375 -0.945312 2.941406 -1.566406 2.453125 -2.359375 C 1.972656 -3.148438 1.734375 -4.050781 1.734375 -5.0625 L 1.734375 -14.234375 L 4.015625 -14.234375 Z M 4.015625 -5.125 "/></g></g></g></g><g clip-path="url(#ad485ca27b)"><g fill="#000000" fill-opacity="1"><g transform="translate(112.526799, 14.809575)"><g><path d="M 14.53125 -14.234375 L 14.53125 0.515625 L 14.46875 0.515625 L 4.203125 -9.453125 L 4.265625 0 L 1.953125 0 L 1.953125 -14.734375 L 2.078125 -14.734375 L 12.3125 -4.65625 L 12.265625 -14.234375 Z M 14.53125 -14.234375 "/></g></g></g></g><g clip-path="url(#6dc8b44fbe)"><g fill="#000000" fill-opacity="1"><g transform="translate(129.626057, 14.809575)"><g><path d="M 4.25 -14.234375 L 4.25 0 L 1.953125 0 L 1.953125 -14.234375 Z M 4.25 -14.234375 "/></g></g></g></g><g clip-path="url(#92e7b65973)"><g fill="#000000" fill-opacity="1"><g transform="translate(136.427181, 14.809575)"><g><path d="M 13.484375 -14.234375 L 7.09375 0.671875 L 0.71875 -14.234375 L 3.4375 -14.234375 L 7.203125 -4.890625 L 10.796875 -14.234375 Z M 13.484375 -14.234375 "/></g></g></g></g><g clip-path="url(#9ca6dc2454)"><g fill="#000000" fill-opacity="1"><g transform="translate(151.220592, 14.809575)"><g><path d="M 11.40625 -14.234375 L 11.40625 -12.046875 L 4.25 -12.046875 L 4.25 -8.25 L 10.625 -8.25 L 10.625 -6.0625 L 4.25 -6.0625 L 4.25 -2.1875 L 11.671875 -2.1875 L 11.671875 0 L 1.953125 0 L 1.953125 -14.234375 Z M 11.40625 -14.234375 "/></g></g></g></g><g clip-path="url(#6d984a7575)"><g fill="#000000" fill-opacity="1"><g transform="translate(164.685203, 14.809575)"><g><path d="M 9.734375 0 L 6.53125 -4.953125 L 4.25 -4.953125 L 4.25 0 L 1.953125 0 L 1.953125 -14.234375 L 5.96875 -14.234375 C 7.5625 -14.234375 8.835938 -13.828125 9.796875 -13.015625 C 10.753906 -12.210938 11.234375 -11.09375 11.234375 -9.65625 C 11.234375 -8.789062 11.046875 -7.984375 10.671875 -7.234375 C 10.296875 -6.484375 9.710938 -5.90625 8.921875 -5.5 L 12.390625 0 Z M 4.25 -7.140625 L 6.28125 -7.140625 C 7.195312 -7.140625 7.859375 -7.390625 8.265625 -7.890625 C 8.671875 -8.390625 8.875 -8.953125 8.875 -9.578125 C 8.875 -9.953125 8.796875 -10.320312 8.640625 -10.6875 C 8.484375 -11.0625 8.21875 -11.378906 7.84375 -11.640625 C 7.46875 -11.910156 6.972656 -12.046875 6.359375 -12.046875 L 4.25 -12.046875 Z M 4.25 -7.140625 "/></g></g></g></g><g clip-path="url(#d881cce8ed)"><g fill="#000000" fill-opacity="1"><g transform="translate(178.384317, 14.809575)"><g><path d="M 9.421875 -11.34375 C 8.203125 -11.988281 7.113281 -12.3125 6.15625 -12.3125 C 5.457031 -12.3125 4.898438 -12.148438 4.484375 -11.828125 C 4.078125 -11.515625 3.875 -11.085938 3.875 -10.546875 C 3.875 -10.003906 4.128906 -9.554688 4.640625 -9.203125 C 5.160156 -8.847656 5.882812 -8.492188 6.8125 -8.140625 C 7.507812 -7.890625 8.109375 -7.601562 8.609375 -7.28125 C 9.117188 -6.96875 9.535156 -6.535156 9.859375 -5.984375 C 10.179688 -5.441406 10.34375 -4.75 10.34375 -3.90625 C 10.34375 -3.15625 10.15625 -2.472656 9.78125 -1.859375 C 9.40625 -1.242188 8.859375 -0.753906 8.140625 -0.390625 C 7.421875 -0.0234375 6.570312 0.15625 5.59375 0.15625 C 4.726562 0.15625 3.878906 0.0234375 3.046875 -0.234375 C 2.210938 -0.503906 1.472656 -0.875 0.828125 -1.34375 L 1.84375 -3.125 C 2.320312 -2.757812 2.890625 -2.457031 3.546875 -2.21875 C 4.203125 -1.976562 4.8125 -1.859375 5.375 -1.859375 C 6.070312 -1.859375 6.679688 -2.023438 7.203125 -2.359375 C 7.722656 -2.691406 7.984375 -3.203125 7.984375 -3.890625 C 7.984375 -4.441406 7.765625 -4.898438 7.328125 -5.265625 C 6.890625 -5.628906 6.28125 -5.960938 5.5 -6.265625 C 4.6875 -6.554688 4.015625 -6.847656 3.484375 -7.140625 C 2.953125 -7.441406 2.492188 -7.851562 2.109375 -8.375 C 1.722656 -8.90625 1.53125 -9.570312 1.53125 -10.375 C 1.53125 -11.53125 1.921875 -12.460938 2.703125 -13.171875 C 3.492188 -13.878906 4.535156 -14.257812 5.828125 -14.3125 C 6.765625 -14.3125 7.585938 -14.203125 8.296875 -13.984375 C 9.015625 -13.773438 9.679688 -13.476562 10.296875 -13.09375 Z M 9.421875 -11.34375 "/></g></g></g></g><g clip-path="url(#0ee77852e9)"><g fill="#000000" fill-opacity="1"><g transform="translate(190.36381, 14.809575)"><g><path d="M 4.25 -14.234375 L 4.25 0 L 1.953125 0 L 1.953125 -14.234375 Z M 4.25 -14.234375 "/></g></g></g></g><g clip-path="url(#cfc113ca1e)"><g fill="#000000" fill-opacity="1"><g transform="translate(197.164923, 14.809575)"><g><path d="M 10.46875 -14.234375 L 10.46875 -12.046875 L 6.78125 -12.046875 L 6.78125 0 L 4.515625 0 L 4.515625 -12.046875 L 0.9375 -12.046875 L 0.9375 -14.234375 Z M 10.46875 -14.234375 "/></g></g></g></g><g clip-path="url(#674c967c87)"><g fill="#000000" fill-opacity="1"><g transform="translate(209.163944, 14.809575)"><g><path d="M 13.328125 -14.234375 L 7.984375 -4.609375 L 7.984375 0 L 5.71875 0 L 5.71875 -4.609375 L 0.453125 -14.234375 L 3.25 -14.234375 L 6.921875 -7.21875 L 10.53125 -14.234375 Z M 13.328125 -14.234375 "/></g></g></g></g><g fill="#000000" fill-opacity="1"><g transform="translate(34.90895, 36.053192)"><g><path d="M 1.417969 -7.464844 C 1.417969 -5.988281 1.644531 -4.65625 2.441406 -3.71875 C 3.40625 -2.527344 4.398438 -2.15625 5.109375 -2.15625 C 6.160156 -2.15625 6.613281 -2.921875 5.675781 -3.179688 C 5.394531 -3.265625 5.167969 -3.292969 4.882812 -3.40625 C 4.285156 -3.605469 3.832031 -3.972656 3.464844 -4.457031 C 1.816406 -6.472656 2.726562 -10.160156 3.632812 -12.175781 C 4.398438 -13.964844 5.476562 -15.582031 6.753906 -17.03125 C 7.523438 -17.996094 10.105469 -20.4375 11.410156 -20.4375 C 12.148438 -20.4375 12.460938 -20.125 12.832031 -19.386719 C 13.824219 -17.285156 12.574219 -12.007812 12.0625 -9.964844 C 11.523438 -7.835938 11.070312 -5.707031 10.558594 -3.605469 C 10.105469 -1.417969 9.652344 0.824219 9.394531 3.039062 L 8.742188 8.230469 C 8.6875 8.800781 8.515625 9.707031 8.941406 9.878906 C 9 9.90625 9.054688 9.90625 9.113281 9.90625 C 9.539062 9.90625 9.507812 9.054688 9.566406 8.65625 C 9.621094 8.089844 9.707031 7.464844 9.792969 6.898438 C 10.671875 0.566406 11.667969 -3.292969 13.058594 -9.425781 C 13.652344 -12.007812 14.988281 -17.515625 13.566406 -20.070312 C 13.027344 -21.003906 12.320312 -21.347656 11.582031 -21.347656 C 10.160156 -21.347656 8.601562 -20.152344 7.691406 -19.246094 C 7.4375 -18.960938 7.210938 -18.820312 6.925781 -18.5625 C 4.230469 -15.867188 1.417969 -11.324219 1.417969 -7.464844 Z M 1.417969 -7.464844 "/></g></g></g><g fill="#000000" fill-opacity="1"><g transform="translate(48.334963, 36.053192)"><g><path d="M 0.792969 -1.476562 C 1.902344 -1.476562 3.039062 -5.109375 3.972656 -5.734375 C 4.230469 -5.195312 3.832031 -4.058594 4.398438 -2.355469 C 4.65625 -1.589844 5.136719 -0.824219 6.019531 -0.824219 C 6.1875 -0.824219 6.359375 -0.851562 6.558594 -0.910156 C 7.210938 -1.078125 8.117188 -2.214844 8.515625 -2.726562 C 8.6875 -2.953125 10.359375 -5.050781 9.253906 -5.050781 C 8.742188 -5.050781 7.238281 -1.675781 6.101562 -1.675781 C 5.050781 -1.675781 4.996094 -4.199219 4.996094 -4.910156 L 4.824219 -6.5 C 4.683594 -6.8125 4.484375 -6.953125 4.285156 -6.953125 C 3.605469 -6.953125 2.753906 -5.507812 2.582031 -5.195312 L 1.21875 -3.121094 C 1.21875 -5.335938 3.066406 -8.003906 1.816406 -8.003906 C 0.738281 -8.003906 -1.023438 -1.476562 0.792969 -1.476562 Z M 0.792969 -1.476562 "/></g></g></g><g fill="#000000" fill-opacity="1"><g transform="translate(56.850407, 36.053192)"><g><path d="M 0.792969 -1.476562 C 1.902344 -1.476562 3.039062 -5.109375 3.972656 -5.734375 C 4.230469 -5.195312 3.832031 -4.058594 4.398438 -2.355469 C 4.65625 -1.589844 5.136719 -0.824219 6.019531 -0.824219 C 6.1875 -0.824219 6.359375 -0.851562 6.558594 -0.910156 C 7.210938 -1.078125 8.117188 -2.214844 8.515625 -2.726562 C 8.6875 -2.953125 10.359375 -5.050781 9.253906 -5.050781 C 8.742188 -5.050781 7.238281 -1.675781 6.101562 -1.675781 C 5.050781 -1.675781 4.996094 -4.199219 4.996094 -4.910156 L 4.824219 -6.5 C 4.683594 -6.8125 4.484375 -6.953125 4.285156 -6.953125 C 3.605469 -6.953125 2.753906 -5.507812 2.582031 -5.195312 L 1.21875 -3.121094 C 1.21875 -5.335938 3.066406 -8.003906 1.816406 -8.003906 C 0.738281 -8.003906 -1.023438 -1.476562 0.792969 -1.476562 Z M 0.792969 -1.476562 "/></g></g></g><g fill="#000000" fill-opacity="1"><g transform="translate(65.365852, 36.053192)"><g><path d="M 1.417969 -0.652344 C 0.792969 -1.957031 2.101562 -4.511719 2.300781 -5.335938 C 3.292969 -4.683594 2.582031 -0.964844 1.417969 -0.652344 Z M 0 -1.617188 C 0 -0.140625 0.625 0.597656 1.363281 0.597656 C 2.214844 0.597656 3.265625 -0.398438 3.691406 -2.355469 C 4.316406 -5.28125 2.953125 -5.761719 2.808594 -6.300781 C 2.953125 -6.527344 3.207031 -6.699219 3.292969 -6.898438 C 3.378906 -7.125 3.207031 -7.578125 2.839844 -7.578125 C 1.449219 -7.578125 0 -2.894531 0 -1.617188 Z M 0 -1.617188 "/></g></g></g><g fill="#000000" fill-opacity="1"><g transform="translate(70.361576, 36.053192)"><g><path d="M 0.0273438 -3.09375 C 0.0273438 -2.128906 -0.113281 -0.511719 0.625 0.199219 C 0.878906 0.453125 1.136719 0.566406 1.390625 0.566406 C 2.921875 0.566406 4.597656 -3.40625 5.023438 -4.34375 C 5.308594 -4.96875 6.273438 -6.871094 5.535156 -6.871094 C 4.996094 -6.871094 4.742188 -5.789062 4.457031 -5.25 C 4.003906 -4.285156 2.554688 -0.792969 1.417969 -0.511719 C 1.050781 -2.128906 1.304688 -3.234375 1.589844 -4.910156 C 1.761719 -6.074219 2.1875 -7.097656 1.875 -7.75 C 1.675781 -7.777344 1.675781 -7.835938 1.417969 -7.835938 C 0.566406 -7.835938 0.0273438 -4.257812 0.0273438 -3.09375 Z M 0.0273438 -3.09375 "/></g></g></g><g fill="#000000" fill-opacity="1"><g transform="translate(76.464314, 36.053192)"><g><path d="M 0 -2.867188 C 0 -1.84375 0.0859375 -1.363281 1.136719 -1.363281 C 1.957031 -1.363281 2.839844 -4.03125 3.378906 -4.398438 C 3.378906 -3.179688 4.285156 -1.703125 5.707031 -1.703125 C 6.1875 -1.703125 6.726562 -1.875 7.296875 -2.269531 L 8.148438 -2.953125 C 9.59375 -4.34375 9.425781 -5.050781 9 -5.050781 C 8.828125 -5.050781 8.628906 -4.96875 8.488281 -4.769531 C 8.089844 -4.34375 8.003906 -4.085938 7.464844 -3.605469 C 6.839844 -2.980469 6.246094 -2.640625 5.707031 -2.640625 C 5.109375 -2.640625 4.597656 -3.09375 4.371094 -4.117188 C 4.117188 -5.195312 4.597656 -6.472656 3.605469 -6.472656 C 3.234375 -6.472656 2.070312 -4.058594 1.503906 -3.179688 L 1.277344 -2.839844 C 1.136719 -2.667969 1.21875 -2.78125 1.136719 -2.695312 C 1.136719 -3.632812 1.53125 -4.710938 1.902344 -5.308594 C 2.726562 -6.726562 3.292969 -7.125 3.71875 -7.125 C 4.257812 -7.125 4.597656 -6.472656 4.996094 -6.472656 C 5.734375 -6.472656 4.996094 -8.089844 3.660156 -8.089844 C 1.675781 -8.089844 0 -4.484375 0 -2.867188 Z M 0 -2.867188 "/></g></g></g><g fill="#000000" fill-opacity="1"><g transform="translate(84.69591, 36.053192)"><g><path d="M -7.976562 -12.660156 C -7.976562 -12.261719 -7.691406 -12.175781 -7.378906 -12.175781 C -7.210938 -12.175781 -7.039062 -12.207031 -6.898438 -12.234375 C -6.640625 -12.773438 -6.925781 -12.660156 -6.214844 -12.945312 C -5.875 -13.085938 -5.621094 -13.285156 -5.28125 -13.425781 C -3.519531 -14.109375 -1.902344 -14.589844 -0.0273438 -15.042969 C 0.253906 -15.128906 0.910156 -15.242188 1.078125 -15.300781 L 0.824219 -12.660156 C 0.792969 -12.289062 0.765625 -11.667969 0.710938 -11.296875 C 0.566406 -10.472656 0.539062 -6.640625 0.539062 -5.5625 L 0.453125 -4.230469 C 0.453125 -2.15625 0.367188 1.21875 0.539062 3.265625 C 0.539062 3.945312 0.566406 4.96875 1.304688 4.96875 C 2.042969 4.96875 1.617188 3.007812 1.617188 2.355469 C 1.5625 1.105469 1.589844 -4.570312 1.675781 -5.421875 C 1.730469 -6.019531 1.675781 -7.296875 1.675781 -8.117188 C 1.675781 -8.515625 1.761719 -8.515625 1.761719 -8.882812 C 1.761719 -9.167969 1.730469 -9.507812 1.761719 -9.765625 L 2.328125 -15.582031 C 3.007812 -15.726562 7.324219 -16.546875 8.882812 -16.546875 C 9.082031 -16.546875 9.226562 -16.546875 9.339844 -16.519531 C 9.679688 -16.433594 9.59375 -16.546875 9.679688 -16.265625 C 10.757812 -16.265625 10.417969 -17.398438 9.082031 -17.398438 C 7.351562 -17.398438 5.675781 -17.117188 4.03125 -16.804688 C 3.605469 -16.746094 3.007812 -16.578125 2.554688 -16.578125 C 2.554688 -17.484375 3.121094 -16.746094 3.121094 -17.484375 C 3.121094 -17.65625 3.09375 -17.769531 3.09375 -17.855469 C 3.066406 -18.136719 3.121094 -17.910156 3.121094 -18.25 C 3.121094 -18.707031 2.894531 -19.074219 2.582031 -19.074219 C 2.214844 -19.074219 1.761719 -18.5625 1.476562 -17.03125 C 1.277344 -16.066406 1.363281 -16.320312 0.171875 -16.007812 C -1.449219 -15.554688 -7.976562 -13.9375 -7.976562 -12.660156 Z M -7.976562 -12.660156 "/></g></g></g><g fill="#000000" fill-opacity="1"><g transform="translate(87.988543, 36.053192)"><g><path d="M 2.355469 0.113281 C 3.691406 0.113281 4.769531 -1.136719 5.449219 -1.84375 C 5.902344 -2.300781 7.605469 -4.199219 7.605469 -4.742188 C 7.605469 -4.996094 7.523438 -5.082031 7.410156 -5.082031 C 6.871094 -5.082031 5.363281 -3.066406 5.25 -2.921875 C 4.824219 -2.382812 3.347656 -0.878906 2.441406 -0.878906 C 1.675781 -0.878906 1.363281 -2.554688 1.363281 -3.40625 C 1.363281 -6.300781 2.496094 -7.578125 1.191406 -7.578125 C 0.625 -7.578125 0.339844 -6.300781 0.253906 -5.707031 C -0.0585938 -4.257812 0 -2.300781 0.679688 -1.023438 C 0.992188 -0.484375 1.589844 0.113281 2.355469 0.113281 Z M 1.449219 -11.15625 C 1.449219 -10.53125 1.816406 -10.246094 2.214844 -10.246094 C 2.78125 -10.246094 3.378906 -10.871094 2.839844 -11.921875 C 2.667969 -12.234375 2.46875 -12.347656 2.269531 -12.347656 C 1.84375 -12.347656 1.449219 -11.808594 1.449219 -11.15625 Z M 1.449219 -11.15625 "/></g></g></g><g fill="#000000" fill-opacity="1"><g transform="translate(94.460285, 36.053192)"><g><path d="M 1.417969 -0.652344 C 0.792969 -1.957031 2.101562 -4.511719 2.300781 -5.335938 C 3.292969 -4.683594 2.582031 -0.964844 1.417969 -0.652344 Z M 0 -1.617188 C 0 -0.140625 0.625 0.597656 1.363281 0.597656 C 2.214844 0.597656 3.265625 -0.398438 3.691406 -2.355469 C 4.316406 -5.28125 2.953125 -5.761719 2.808594 -6.300781 C 2.953125 -6.527344 3.207031 -6.699219 3.292969 -6.898438 C 3.378906 -7.125 3.207031 -7.578125 2.839844 -7.578125 C 1.449219 -7.578125 0 -2.894531 0 -1.617188 Z M 0 -1.617188 "/></g></g></g><g fill="#000000" fill-opacity="1"><g transform="translate(99.45601, 36.053192)"><g><path d="M 0.792969 -1.476562 C 1.902344 -1.476562 3.039062 -5.109375 3.972656 -5.734375 C 4.230469 -5.195312 3.832031 -4.058594 4.398438 -2.355469 C 4.65625 -1.589844 5.136719 -0.824219 6.019531 -0.824219 C 6.1875 -0.824219 6.359375 -0.851562 6.558594 -0.910156 C 7.210938 -1.078125 8.117188 -2.214844 8.515625 -2.726562 C 8.6875 -2.953125 10.359375 -5.050781 9.253906 -5.050781 C 8.742188 -5.050781 7.238281 -1.675781 6.101562 -1.675781 C 5.050781 -1.675781 4.996094 -4.199219 4.996094 -4.910156 L 4.824219 -6.5 C 4.683594 -6.8125 4.484375 -6.953125 4.285156 -6.953125 C 3.605469 -6.953125 2.753906 -5.507812 2.582031 -5.195312 L 1.21875 -3.121094 C 1.21875 -5.335938 3.066406 -8.003906 1.816406 -8.003906 C 0.738281 -8.003906 -1.023438 -1.476562 0.792969 -1.476562 Z M 0.792969 -1.476562 "/></g></g></g><g fill="#000000" fill-opacity="1"><g transform="translate(107.971454, 36.053192)"><g/></g></g><g clip-path="url(#fac274aa2c)"><g fill="#000000" fill-opacity="1"><g transform="translate(115.323123, 36.053192)"><g><path d="M 12.746094 14.109375 C 11.523438 14.109375 12.0625 11.980469 12.320312 11.210938 C 12.945312 9.367188 14.902344 6.640625 16.378906 5.167969 C 16.746094 4.824219 16.972656 4.398438 17.371094 4.085938 C 17.257812 6.160156 15.074219 14.109375 12.746094 14.109375 Z M 0 -2.441406 C 0 0.511719 0.625 3.007812 2.46875 4.882812 C 3.464844 5.902344 4.457031 5.902344 5.789062 5.902344 C 8.375 5.902344 12.035156 2.667969 13.484375 0.652344 C 15.355469 -1.84375 15.695312 -2.78125 17.257812 -5.25 L 18.480469 -7.265625 C 18.847656 -5.648438 18.167969 -0.625 17.910156 1.21875 C 17.542969 3.464844 17.34375 2.382812 15.894531 4.171875 C 15.695312 4.511719 15.441406 4.710938 15.1875 4.996094 C 13.824219 6.753906 11.128906 9.851562 11.128906 12.320312 C 11.128906 13.625 11.042969 15.015625 13.027344 15.015625 C 13.425781 15.015625 14.078125 14.589844 14.363281 14.363281 C 16.804688 12.347656 18.023438 6.871094 18.59375 3.917969 C 18.734375 3.433594 18.734375 2.726562 19.101562 2.382812 L 23.359375 -1.644531 C 23.757812 -2.015625 24.015625 -2.382812 24.382812 -2.753906 C 24.636719 -3.039062 26.710938 -4.996094 25.605469 -4.996094 C 25.035156 -4.996094 24.296875 -4.003906 23.957031 -3.578125 L 20.011719 0.285156 C 19.8125 0.425781 19.757812 0.425781 19.558594 0.625 C 19.300781 0.765625 19.300781 0.878906 19.132812 0.992188 C 19.160156 -0.140625 19.671875 -2.441406 19.671875 -4.996094 C 19.671875 -5.960938 19.8125 -8.574219 18.734375 -8.574219 C 17.796875 -8.574219 16.519531 -5.820312 15.894531 -4.742188 C 14.761719 -2.78125 14.078125 -1.417969 12.6875 0.339844 L 11.15625 2.015625 C 9.878906 3.265625 7.578125 4.9375 5.476562 4.9375 C 4.710938 4.9375 3.972656 4.710938 3.320312 4.144531 C 2.808594 3.773438 2.46875 3.121094 2.214844 2.582031 C 0.625 -0.652344 1.617188 -6.359375 2.527344 -9.425781 C 3.320312 -12.0625 5.988281 -18.507812 9.453125 -18.507812 C 11.921875 -18.507812 12.945312 -14.417969 12.945312 -12.007812 C 12.945312 -9.566406 12.886719 -8.34375 12.375 -5.988281 C 12.261719 -5.136719 12.121094 -4.824219 12.289062 -4.03125 C 12.519531 -3.972656 12.6875 -3.917969 12.800781 -3.917969 C 13.140625 -3.917969 13.226562 -4.230469 13.484375 -5.335938 C 14.390625 -8.941406 14.816406 -13.9375 13.199219 -17.257812 C 12.234375 -19.160156 10.898438 -20.011719 9.425781 -20.011719 C 6.101562 -20.011719 3.773438 -16.207031 2.46875 -13.539062 C 0.992188 -10.277344 0 -6.074219 0 -2.441406 Z M 0 -2.441406 "/></g></g></g></g><g fill="#000000" fill-opacity="1"><g transform="translate(139.904372, 36.053192)"><g><path d="M 0 -2.867188 C 0 -1.84375 0.0859375 -1.363281 1.136719 -1.363281 C 1.957031 -1.363281 2.839844 -4.03125 3.378906 -4.398438 C 3.378906 -3.179688 4.285156 -1.703125 5.707031 -1.703125 C 6.1875 -1.703125 6.726562 -1.875 7.296875 -2.269531 L 8.148438 -2.953125 C 9.59375 -4.34375 9.425781 -5.050781 9 -5.050781 C 8.828125 -5.050781 8.628906 -4.96875 8.488281 -4.769531 C 8.089844 -4.34375 8.003906 -4.085938 7.464844 -3.605469 C 6.839844 -2.980469 6.246094 -2.640625 5.707031 -2.640625 C 5.109375 -2.640625 4.597656 -3.09375 4.371094 -4.117188 C 4.117188 -5.195312 4.597656 -6.472656 3.605469 -6.472656 C 3.234375 -6.472656 2.070312 -4.058594 1.503906 -3.179688 L 1.277344 -2.839844 C 1.136719 -2.667969 1.21875 -2.78125 1.136719 -2.695312 C 1.136719 -3.632812 1.53125 -4.710938 1.902344 -5.308594 C 2.726562 -6.726562 3.292969 -7.125 3.71875 -7.125 C 4.257812 -7.125 4.597656 -6.472656 4.996094 -6.472656 C 5.734375 -6.472656 4.996094 -8.089844 3.660156 -8.089844 C 1.675781 -8.089844 0 -4.484375 0 -2.867188 Z M 0 -2.867188 "/></g></g></g><g fill="#000000" fill-opacity="1"><g transform="translate(148.135968, 36.053192)"><g><path d="M 0.0585938 -2.1875 C 0.0585938 -0.339844 0.113281 3.152344 1.644531 3.152344 C 2.355469 3.152344 2.894531 2.070312 3.207031 1.589844 C 3.832031 0.539062 4.597656 -1.449219 5.195312 -2.667969 C 5.335938 -2.953125 6.214844 -4.597656 6.214844 -4.769531 C 6.214844 -4.910156 6.101562 -5.082031 5.960938 -5.082031 C 5.820312 -5.082031 5.648438 -4.96875 5.476562 -4.625 C 4.570312 -3.007812 3.746094 -1.023438 2.894531 0.625 C 2.582031 1.277344 2.1875 2.042969 1.5625 2.382812 C 0.285156 -0.0585938 1.875 -8.882812 2.667969 -11.75 C 2.753906 -12.035156 3.492188 -13.683594 2.554688 -13.683594 C 1.816406 -13.683594 1.5625 -12.261719 1.304688 -11.4375 C 0.597656 -8.828125 0.0585938 -4.996094 0.0585938 -2.1875 Z M 0.0585938 -2.1875 "/></g></g></g><g fill="#000000" fill-opacity="1"><g transform="translate(153.131693, 36.053192)"><g><path d="M 0.0585938 -2.1875 C 0.0585938 -0.339844 0.113281 3.152344 1.644531 3.152344 C 2.355469 3.152344 2.894531 2.070312 3.207031 1.589844 C 3.832031 0.539062 4.597656 -1.449219 5.195312 -2.667969 C 5.335938 -2.953125 6.214844 -4.597656 6.214844 -4.769531 C 6.214844 -4.910156 6.101562 -5.082031 5.960938 -5.082031 C 5.820312 -5.082031 5.648438 -4.96875 5.476562 -4.625 C 4.570312 -3.007812 3.746094 -1.023438 2.894531 0.625 C 2.582031 1.277344 2.1875 2.042969 1.5625 2.382812 C 0.285156 -0.0585938 1.875 -8.882812 2.667969 -11.75 C 2.753906 -12.035156 3.492188 -13.683594 2.554688 -13.683594 C 1.816406 -13.683594 1.5625 -12.261719 1.304688 -11.4375 C 0.597656 -8.828125 0.0585938 -4.996094 0.0585938 -2.1875 Z M 0.0585938 -2.1875 "/></g></g></g><g fill="#000000" fill-opacity="1"><g transform="translate(158.127418, 36.053192)"><g><path d="M 1.304688 -5.136719 C 1.503906 -5.847656 2.441406 -6.953125 3.207031 -7.097656 C 3.121094 -6.1875 2.015625 -5.507812 1.304688 -5.136719 Z M 0.0273438 -4.457031 C 0.0273438 -3.660156 0 -2.953125 0.679688 -2.269531 C 1.164062 -1.789062 1.730469 -1.589844 2.328125 -1.589844 C 4.058594 -1.589844 6.019531 -3.320312 7.066406 -4.371094 C 7.324219 -4.683594 7.324219 -4.710938 7.238281 -5.136719 C 6.386719 -5.136719 6.839844 -5.023438 5.675781 -4.117188 C 5.476562 -3.972656 5.394531 -3.859375 5.167969 -3.691406 C 4.597656 -3.265625 3.40625 -2.441406 2.414062 -2.441406 C 2.070312 -2.441406 1.730469 -2.554688 1.476562 -2.808594 C 0.992188 -3.292969 1.050781 -3.746094 1.050781 -4.34375 C 1.929688 -4.398438 2.953125 -5.222656 3.40625 -5.734375 C 4.285156 -6.839844 4.285156 -7.976562 3.039062 -7.976562 C 1.675781 -7.976562 0.0273438 -5.875 0.0273438 -4.457031 Z M 0.0273438 -4.457031 "/></g></g></g><g fill="#000000" fill-opacity="1"><g transform="translate(164.286918, 36.053192)"><g><path d="M 0.398438 -0.113281 C 1.277344 -0.113281 0.9375 -1.078125 1.105469 -1.816406 C 1.21875 -2.496094 1.476562 -3.066406 1.761719 -3.546875 C 2.214844 -4.285156 2.355469 -4.285156 3.433594 -4.285156 C 3.746094 -4.285156 4.171875 -4.257812 4.542969 -4.257812 C 5.109375 -4.257812 5.5625 -4.316406 5.5625 -4.710938 C 5.5625 -5.082031 4.683594 -5.136719 3.859375 -5.136719 C 3.378906 -5.136719 2.894531 -5.109375 2.640625 -5.109375 C 1.761719 -5.109375 1.589844 -4.570312 1.164062 -4.285156 C 1.164062 -4.65625 1.21875 -4.625 1.21875 -5.023438 C 1.21875 -5.308594 1.21875 -5.648438 1.25 -5.933594 C 1.335938 -6.726562 1.476562 -7.265625 0.710938 -7.265625 C 0.0859375 -7.265625 0.0273438 -4.316406 0.0273438 -3.804688 C 0.0585938 -3.09375 0.0273438 -2.382812 0.0585938 -1.703125 C 0.0585938 -1.503906 -0.171875 -0.113281 0.398438 -0.113281 Z M 0.398438 -0.113281 "/></g></g></g><g fill="#000000" fill-opacity="1"><g transform="translate(168.913639, 36.053192)"><g><path d="M 0.824219 11.382812 C 0.367188 11.382812 -0.0859375 11.210938 -0.3125 10.929688 C -1.449219 9.707031 -0.3125 7.410156 0.367188 6.445312 C 1.078125 5.363281 1.761719 4.484375 2.667969 3.578125 C 2.894531 3.378906 3.007812 3.152344 3.179688 3.007812 L 5.960938 0.539062 C 6.1875 0.367188 6.359375 0.253906 6.585938 0.113281 C 6.445312 1.875 5.136719 6.898438 4.285156 8.457031 C 3.605469 9.679688 2.441406 11.382812 0.824219 11.382812 Z M 1.476562 -2.496094 C 1.476562 -5.222656 3.152344 -7.125 1.902344 -7.125 C 0.964844 -7.125 0.285156 -4.285156 0.285156 -3.066406 C 0.285156 -2.070312 0.738281 -1.449219 1.363281 -1.449219 C 1.675781 -1.449219 2.015625 -1.617188 2.355469 -1.929688 C 3.121094 -2.640625 4.003906 -4.085938 4.570312 -4.996094 C 5.023438 -5.648438 7.152344 -9.367188 7.410156 -9.539062 C 7.410156 -6.273438 7.152344 -4.34375 6.8125 -1.449219 C 6.785156 -0.9375 6.527344 -0.9375 6.019531 -0.484375 C 5.789062 -0.3125 5.675781 -0.253906 5.476562 -0.0859375 C 3.007812 1.675781 -1.589844 6.386719 -1.589844 9.507812 C -1.589844 11.210938 -0.511719 12.207031 0.878906 12.207031 C 2.753906 12.207031 4.371094 10.503906 5.195312 8.941406 C 6.585938 6.671875 7.523438 2.355469 7.917969 -0.453125 C 7.976562 -0.851562 7.917969 -0.910156 8.203125 -1.105469 C 9.308594 -1.875 10.472656 -2.613281 11.636719 -3.265625 C 11.980469 -3.464844 13.796875 -4.398438 13.796875 -4.824219 C 13.796875 -5.050781 13.683594 -5.136719 13.539062 -5.136719 C 13.113281 -5.136719 12.347656 -4.542969 12.175781 -4.429688 L 8.117188 -2.070312 C 8.117188 -2.867188 8.375 -4.710938 8.375 -6.132812 L 8.375 -8.316406 C 8.375 -8.882812 8.402344 -10.984375 7.804688 -10.984375 C 7.210938 -10.984375 7.210938 -10.785156 6.753906 -10.046875 C 5.761719 -8.375 2.921875 -3.234375 1.476562 -2.496094 Z M 1.476562 -2.496094 "/></g></g></g><path stroke-linecap="round" transform="matrix(0.757889, 0, 0, 0.7496, 184.200555, 32.52144)" fill="none" stroke-linejoin="miter" d="M 0.498187 -0.00254615 L 29.175691 -0.00254615 " stroke="#000000" stroke-width="1" stroke-opacity="1" stroke-miterlimit="4"/><path stroke-linecap="round" transform="matrix(0.757889, 0, 0, 0.7496, 12.664361, 32.377284)" fill="none" stroke-linejoin="miter" d="M 0.499556 0.00216354 L 29.17706 0.00216354 " stroke="#000000" stroke-width="1" stroke-opacity="1" stroke-miterlimit="4"/></svg>